<mxfile host="app.diagrams.net" modified="2024-07-17T19:13:17.891Z" agent="Mozilla/5.0 (Windows NT 10.0; Win64; x64) AppleWebKit/537.36 (KHTML, like Gecko) Chrome/126.0.0.0 Safari/537.36 Edg/126.0.0.0" etag="GaMxfX2fUu3oNtmrWKOh" version="24.6.5" type="device">
  <diagram name="Page-1" id="oC06yTU7_GMC6n1NQI5L">
    <mxGraphModel dx="1565" dy="399" grid="1" gridSize="10" guides="1" tooltips="1" connect="1" arrows="1" fold="1" page="1" pageScale="1" pageWidth="850" pageHeight="1100" math="0" shadow="0">
      <root>
        <mxCell id="0" />
        <mxCell id="1" parent="0" />
        <mxCell id="tILSbYsJPmMcVgljQw28-1" value="18650 Battery" style="rounded=1;whiteSpace=wrap;html=1;fillColor=#f8cecc;strokeColor=#b85450;" vertex="1" parent="1">
          <mxGeometry x="-100" y="100" width="280" height="60" as="geometry" />
        </mxCell>
        <mxCell id="tILSbYsJPmMcVgljQw28-2" value="+" style="text;html=1;align=center;verticalAlign=middle;whiteSpace=wrap;rounded=0;" vertex="1" parent="1">
          <mxGeometry x="155" y="115" width="25" height="30" as="geometry" />
        </mxCell>
        <mxCell id="tILSbYsJPmMcVgljQw28-3" value="-" style="text;html=1;align=center;verticalAlign=middle;whiteSpace=wrap;rounded=0;" vertex="1" parent="1">
          <mxGeometry x="-100" y="115" width="25" height="30" as="geometry" />
        </mxCell>
        <mxCell id="tILSbYsJPmMcVgljQw28-4" value="18650 Battery" style="rounded=1;whiteSpace=wrap;html=1;fillColor=#f8cecc;strokeColor=#b85450;" vertex="1" parent="1">
          <mxGeometry x="-100" y="170" width="280" height="60" as="geometry" />
        </mxCell>
        <mxCell id="tILSbYsJPmMcVgljQw28-5" value="-" style="text;html=1;align=center;verticalAlign=middle;whiteSpace=wrap;rounded=0;" vertex="1" parent="1">
          <mxGeometry x="155" y="185" width="25" height="30" as="geometry" />
        </mxCell>
        <mxCell id="tILSbYsJPmMcVgljQw28-6" value="+" style="text;html=1;align=center;verticalAlign=middle;whiteSpace=wrap;rounded=0;" vertex="1" parent="1">
          <mxGeometry x="-100" y="185" width="25" height="30" as="geometry" />
        </mxCell>
        <mxCell id="tILSbYsJPmMcVgljQw28-7" value="" style="endArrow=none;html=1;rounded=0;" edge="1" parent="1">
          <mxGeometry width="50" height="50" relative="1" as="geometry">
            <mxPoint x="-100" y="200" as="sourcePoint" />
            <mxPoint x="-140" y="200" as="targetPoint" />
          </mxGeometry>
        </mxCell>
        <mxCell id="tILSbYsJPmMcVgljQw28-8" value="" style="endArrow=none;html=1;rounded=0;" edge="1" parent="1">
          <mxGeometry width="50" height="50" relative="1" as="geometry">
            <mxPoint x="-140" y="130" as="sourcePoint" />
            <mxPoint x="-140" y="200" as="targetPoint" />
          </mxGeometry>
        </mxCell>
        <mxCell id="tILSbYsJPmMcVgljQw28-9" value="" style="endArrow=none;html=1;rounded=0;" edge="1" parent="1">
          <mxGeometry width="50" height="50" relative="1" as="geometry">
            <mxPoint x="-100" y="129.66" as="sourcePoint" />
            <mxPoint x="-140" y="129.66" as="targetPoint" />
          </mxGeometry>
        </mxCell>
        <mxCell id="tILSbYsJPmMcVgljQw28-10" value="" style="endArrow=none;html=1;rounded=0;fillColor=#f8cecc;strokeColor=#b85450;" edge="1" parent="1">
          <mxGeometry width="50" height="50" relative="1" as="geometry">
            <mxPoint x="180" y="129.5" as="sourcePoint" />
            <mxPoint x="390" y="130" as="targetPoint" />
          </mxGeometry>
        </mxCell>
        <mxCell id="tILSbYsJPmMcVgljQw28-11" value="" style="endArrow=none;html=1;rounded=0;fillColor=#f8cecc;strokeColor=#000000;" edge="1" parent="1">
          <mxGeometry width="50" height="50" relative="1" as="geometry">
            <mxPoint x="180" y="199.75" as="sourcePoint" />
            <mxPoint x="390" y="200.25" as="targetPoint" />
          </mxGeometry>
        </mxCell>
        <mxCell id="tILSbYsJPmMcVgljQw28-14" value="" style="endArrow=none;html=1;rounded=0;fillColor=#dae8fc;strokeColor=#6c8ebf;dashed=1;" edge="1" parent="1">
          <mxGeometry width="50" height="50" relative="1" as="geometry">
            <mxPoint x="390" y="129.75" as="sourcePoint" />
            <mxPoint x="450" y="160" as="targetPoint" />
          </mxGeometry>
        </mxCell>
        <mxCell id="tILSbYsJPmMcVgljQw28-15" value="" style="endArrow=none;html=1;rounded=0;fillColor=#dae8fc;strokeColor=#6c8ebf;dashed=1;" edge="1" parent="1">
          <mxGeometry width="50" height="50" relative="1" as="geometry">
            <mxPoint x="390" y="199.75" as="sourcePoint" />
            <mxPoint x="450" y="160" as="targetPoint" />
          </mxGeometry>
        </mxCell>
        <mxCell id="tILSbYsJPmMcVgljQw28-16" value="" style="endArrow=none;html=1;rounded=0;fillColor=#f8cecc;strokeColor=#b85450;" edge="1" parent="1">
          <mxGeometry width="50" height="50" relative="1" as="geometry">
            <mxPoint x="450" y="160" as="sourcePoint" />
            <mxPoint x="660" y="160.5" as="targetPoint" />
          </mxGeometry>
        </mxCell>
        <mxCell id="tILSbYsJPmMcVgljQw28-17" value="" style="endArrow=none;html=1;rounded=0;fillColor=#f8cecc;strokeColor=#000000;" edge="1" parent="1">
          <mxGeometry width="50" height="50" relative="1" as="geometry">
            <mxPoint x="390" y="200.75" as="sourcePoint" />
            <mxPoint x="450" y="230" as="targetPoint" />
          </mxGeometry>
        </mxCell>
        <mxCell id="tILSbYsJPmMcVgljQw28-18" value="" style="endArrow=none;html=1;rounded=0;fillColor=#f8cecc;strokeColor=#000000;" edge="1" parent="1">
          <mxGeometry width="50" height="50" relative="1" as="geometry">
            <mxPoint x="450" y="230" as="sourcePoint" />
            <mxPoint x="660" y="230.5" as="targetPoint" />
          </mxGeometry>
        </mxCell>
        <mxCell id="tILSbYsJPmMcVgljQw28-19" value="Raspberry&lt;div&gt;Pi&lt;br&gt;Pico&lt;/div&gt;" style="rounded=0;whiteSpace=wrap;html=1;fillColor=#d5e8d4;strokeColor=#82b366;fontColor=#949494;" vertex="1" parent="1">
          <mxGeometry x="660" y="85" width="140" height="230" as="geometry" />
        </mxCell>
        <mxCell id="tILSbYsJPmMcVgljQw28-20" value="GP__ (ADC)" style="text;html=1;align=left;verticalAlign=middle;whiteSpace=wrap;rounded=0;" vertex="1" parent="1">
          <mxGeometry x="660" y="145" width="120" height="30" as="geometry" />
        </mxCell>
        <mxCell id="tILSbYsJPmMcVgljQw28-21" value="GND" style="text;html=1;align=left;verticalAlign=middle;whiteSpace=wrap;rounded=0;" vertex="1" parent="1">
          <mxGeometry x="660" y="215" width="120" height="30" as="geometry" />
        </mxCell>
        <mxCell id="tILSbYsJPmMcVgljQw28-22" value="" style="endArrow=none;html=1;rounded=0;" edge="1" parent="1">
          <mxGeometry width="50" height="50" relative="1" as="geometry">
            <mxPoint x="350" y="199.5" as="sourcePoint" />
            <mxPoint x="350" y="30" as="targetPoint" />
          </mxGeometry>
        </mxCell>
        <mxCell id="tILSbYsJPmMcVgljQw28-23" value="" style="endArrow=none;html=1;rounded=0;fillColor=#f8cecc;strokeColor=#b85450;" edge="1" parent="1">
          <mxGeometry width="50" height="50" relative="1" as="geometry">
            <mxPoint x="340" y="129.5" as="sourcePoint" />
            <mxPoint x="340" y="20" as="targetPoint" />
          </mxGeometry>
        </mxCell>
        <mxCell id="tILSbYsJPmMcVgljQw28-24" value="" style="endArrow=none;html=1;rounded=0;fillColor=#f8cecc;strokeColor=#b85450;" edge="1" parent="1">
          <mxGeometry width="50" height="50" relative="1" as="geometry">
            <mxPoint x="440" y="20" as="sourcePoint" />
            <mxPoint x="340" y="20" as="targetPoint" />
          </mxGeometry>
        </mxCell>
        <mxCell id="tILSbYsJPmMcVgljQw28-25" value="" style="endArrow=none;html=1;rounded=0;" edge="1" parent="1">
          <mxGeometry width="50" height="50" relative="1" as="geometry">
            <mxPoint x="440" y="30" as="sourcePoint" />
            <mxPoint x="350" y="30" as="targetPoint" />
          </mxGeometry>
        </mxCell>
      </root>
    </mxGraphModel>
  </diagram>
</mxfile>
